<?xml version="1.0" encoding="UTF-8"?><svg id="Layer_1" xmlns="http://www.w3.org/2000/svg" viewBox="0 0 300 300"><defs><style>.cls-1,.cls-2{fill:#fff;}.cls-2{fill-rule:evenodd;}</style></defs><path class="cls-2" d="M130.91,151.47v69.47c0,1,.81,1.81,1.81,1.81h25.8c1,0,1.81-.81,1.81-1.81v-70.61h18.7c.94,0,1.72-.72,1.8-1.66l1.8-21.27c.09-1.06-.74-1.96-1.8-1.96h-20.5v-15.09c0-3.54,2.87-6.4,6.41-6.4h14.41c1,0,1.81-.81,1.81-1.81v-21.27c0-1-.81-1.81-1.81-1.81h-24.36c-14.29,0-25.88,11.59-25.88,25.88v20.51h-12.9c-1,0-1.81,.81-1.81,1.81v21.27c0,1,.81,1.81,1.81,1.81h12.9v1.13Z"/><path class="cls-1" d="M149.57,8.9C71.27,8.9,7.57,72.61,7.57,150.91s63.7,142,142,142,142-63.7,142-142S227.88,8.9,149.57,8.9Zm123.79,142.01c0,68.26-55.53,123.79-123.79,123.79S25.78,219.17,25.78,150.91,81.31,27.11,149.57,27.11s123.79,55.53,123.79,123.79Z"/></svg>