<?xml version="1.0" encoding="UTF-8"?><svg id="Layer_1" xmlns="http://www.w3.org/2000/svg" viewBox="0 0 300 300"><defs><style>.cls-1{fill:#fff;}</style></defs><path class="cls-1" d="M197.09,111.72c0,4.7-3.81,8.51-8.51,8.51s-8.51-3.81-8.51-8.51,3.81-8.51,8.51-8.51,8.51,3.81,8.51,8.51Zm-10.59,38.14c0,19.71-16.03,35.74-35.74,35.74s-35.74-16.03-35.74-35.74,16.03-35.74,35.74-35.74,35.74,16.03,35.74,35.74Zm-12.84,0c0-12.62-10.27-22.89-22.89-22.89s-22.89,10.27-22.89,22.89,10.27,22.89,22.89,22.89,22.89-10.27,22.89-22.89Zm49.44-28.71c0-24.07-19.52-43.59-43.59-43.59h-59.48c-24.07,0-43.59,19.52-43.59,43.59v59.49c0,24.07,19.52,43.59,43.59,43.59h59.48c24.07,0,43.59-19.52,43.59-43.59v-59.49Zm-14.31,58.83c0,16.53-13.4,29.94-29.94,29.94h-58.17c-16.54,0-29.94-13.4-29.94-29.94v-58.17c0-16.53,13.4-29.94,29.94-29.94h58.17c16.53,0,29.94,13.4,29.94,29.94v58.17Z"/><path class="cls-1" d="M149.76,8.87C71.45,8.87,7.74,72.58,7.74,150.89s63.71,142.02,142.02,142.02,142.02-63.71,142.02-142.02S228.07,8.87,149.76,8.87Zm0,265.83c-68.27,0-123.81-55.54-123.81-123.81S81.49,27.08,149.76,27.08s123.81,55.54,123.81,123.81-55.54,123.81-123.81,123.81Z"/></svg>