<?xml version="1.0" encoding="UTF-8"?><svg id="Layer_1" xmlns="http://www.w3.org/2000/svg" viewBox="0 0 300 300"><defs><style>.cls-1{fill:#fff;}</style></defs><path class="cls-1" d="M222.24,105.16c-4.64,2.1-9.91,3.37-14.92,4.22,2.38-.4,5.8-4.7,7.2-6.44,2.14-2.65,3.87-5.68,4.87-8.95,.13-.25,.2-.57-.05-.77-.32-.13-.54-.06-.79,.07-5.59,3-11.38,5.17-17.53,6.71-.51,.13-.89,0-1.21-.32-.51-.58-.99-1.12-1.53-1.57-2.59-2.2-5.36-3.93-8.49-5.2-4.11-1.67-8.6-2.38-13.02-2.1-4.3,.28-8.53,1.49-12.35,3.49-3.83,2-7.24,4.78-9.97,8.14-2.81,3.47-4.89,7.57-5.95,11.92-1.03,4.19-.94,8.34-.31,12.59,.09,.7,.03,.8-.6,.7-24.07-3.58-44.02-12.2-60.22-30.65-.7-.8-1.09-.8-1.66,.06-7.09,10.62-3.65,27.69,5.21,36.08,1.18,1.12,2.39,2.24,3.7,3.26-.48,.1-6.37-.54-11.62-3.26-.7-.44-1.06-.19-1.12,.61-.06,1.15,.03,2.2,.19,3.45,1.36,10.77,8.82,20.73,19.03,24.62,1.21,.51,2.55,.96,3.86,1.18-2.33,.51-4.72,.88-11.4,.35-.83-.16-1.15,.26-.83,1.05,5.01,13.67,15.84,17.74,23.95,20.05,1.09,.19,2.17,.19,3.26,.44-.07,.1-.13,.1-.19,.19-2.69,4.1-12.01,7.15-16.35,8.67-7.9,2.76-16.49,4-24.84,3.18-1.34-.2-1.62-.18-1.98,0-.37,.23-.05,.55,.38,.89,1.69,1.12,3.42,2.11,5.17,3.07,5.3,2.81,10.83,5.04,16.6,6.64,29.84,8.24,63.45,2.19,85.85-20.07,17.59-17.48,23.76-41.59,23.76-65.72,0-.94,1.12-1.47,1.78-1.96,4.58-3.44,8.54-7.56,11.95-12.15,.77-1.03,1.04-1.95,1.04-2.33v-.13c0-.39-.28-.27-.87,0Z"/><path class="cls-1" d="M149.76,8.87C71.45,8.87,7.74,72.58,7.74,150.89s63.71,142.02,142.02,142.02,142.02-63.71,142.02-142.02S228.07,8.87,149.76,8.87Zm0,265.83c-68.27,0-123.81-55.54-123.81-123.81S81.49,27.08,149.76,27.08s123.81,55.54,123.81,123.81-55.54,123.81-123.81,123.81Z"/></svg>